<?xml version="1.0" encoding="UTF-8" standalone="no"?>
<!-- Created with Inkscape (http://www.inkscape.org/) -->

<svg
   xmlns:dc="http://purl.org/dc/elements/1.1/"
   xmlns:cc="http://creativecommons.org/ns#"
   xmlns:rdf="http://www.w3.org/1999/02/22-rdf-syntax-ns#"
   xmlns:svg="http://www.w3.org/2000/svg"
   xmlns="http://www.w3.org/2000/svg"
   xmlns:sodipodi="http://sodipodi.sourceforge.net/DTD/sodipodi-0.dtd"
   xmlns:inkscape="http://www.inkscape.org/namespaces/inkscape"
   width="210mm"
   height="297mm"
   id="svg2"
   version="1.1"
   inkscape:version="0.48.4 r9939"
   sodipodi:docname="Neues Dokument 1">
  <defs
     id="defs4" />
  <sodipodi:namedview
     id="base"
     pagecolor="#ffffff"
     bordercolor="#666666"
     borderopacity="1.0"
     inkscape:pageopacity="0.0"
     inkscape:pageshadow="2"
     inkscape:zoom="7.9195959"
     inkscape:cx="32.241815"
     inkscape:cy="1026.6979"
     inkscape:document-units="px"
     inkscape:current-layer="layer1"
     showgrid="false"
     inkscape:window-width="990"
     inkscape:window-height="784"
     inkscape:window-x="495"
     inkscape:window-y="255"
     inkscape:window-maximized="0" />
  <metadata
     id="metadata7">
    <rdf:RDF>
      <cc:Work
         rdf:about="">
        <dc:format>image/svg+xml</dc:format>
        <dc:type
           rdf:resource="http://purl.org/dc/dcmitype/StillImage" />
        <dc:title></dc:title>
      </cc:Work>
    </rdf:RDF>
  </metadata>
  <g
     inkscape:label="Ebene 1"
     inkscape:groupmode="layer"
     id="layer1">
    <g
       id="g4483"
       transform="matrix(0.95137653,0,0,1.1461719,-24.176652,-45.926377)">
      <rect
         y="45.618904"
         x="26.011429"
         height="32.072342"
         width="50.255089"
         id="rect4152"
         style="fill:#008000;fill-opacity:1;stroke:none" />
      <path
         id="rect4152-5"
         d="m 25.1875,45.125 0,5.96875 51.21875,29 0,-5.96875 -51.21875,-29 z"
         style="fill:#ffffff;fill-opacity:1;stroke:none"
         inkscape:connector-curvature="0" />
      <path
         id="rect4152-5-2"
         d="m 76.6875,43.8125 -51.15625,28.96875 0,5.9375 51.15625,-28.9375 0,-5.96875 z"
         style="fill:#ffffff;fill-opacity:1;stroke:none"
         inkscape:connector-curvature="0" />
      <path
         id="rect4152-7"
         d="m 25.09375,47.09375 0,2.1875 51.59375,29.375 0,-2.1875 -51.59375,-29.375 z"
         style="fill:#008000;fill-opacity:1;stroke:none"
         inkscape:connector-curvature="0" />
      <path
         id="rect4152-7-1"
         d="m 76.4375,45.90625 -51.6875,29.4375 0,2.15625 51.6875,-29.40625 0,-2.1875 z"
         style="fill:#008000;fill-opacity:1;stroke:none"
         inkscape:connector-curvature="0" />
      <rect
         y="45.618896"
         x="43.815369"
         height="32.072342"
         width="12.500638"
         id="rect4152-4"
         style="fill:#ffffff;fill-opacity:1;stroke:none" />
      <rect
         y="55.846691"
         x="25.94829"
         height="12.2481"
         width="50.255089"
         id="rect4152-4-2"
         style="fill:#ffffff;fill-opacity:1;stroke:none" />
      <rect
         y="45.6189"
         x="45.52"
         height="32.072342"
         width="8.8388348"
         id="rect4152-4-3"
         style="fill:#008000;fill-opacity:1;stroke:none" />
      <rect
         y="57.17252"
         x="25.885159"
         height="9.5964499"
         width="50.255089"
         id="rect4152-4-2-2"
         style="fill:#008000;fill-opacity:1;stroke:none" />
    </g>
    <g
       id="g3846"
       transform="matrix(1,0,0,1.4324324,-8.0812204,-53.751485)">
      <rect
         y="41.957096"
         x="7.4498754"
         height="8.9651031"
         width="24.496199"
         id="rect3808"
         style="fill:#008000;fill-opacity:1;stroke:none" />
      <rect
         y="50.101452"
         x="7.4498754"
         height="9.5964489"
         width="24.496199"
         id="rect3808-7"
         style="fill:#ffffff;fill-opacity:1;stroke:none" />
      <rect
         y="58.940289"
         x="7.4498754"
         height="8.7125654"
         width="24.496199"
         id="rect3808-4"
         style="fill:#008000;fill-opacity:1;stroke:none" />
    </g>
    <g
       id="g4494">
      <path
         d="m 37.375645,22.259123 a 9.5964489,9.5964489 0 1 1 -19.192898,0 9.5964489,9.5964489 0 1 1 19.192898,0 z"
         sodipodi:ry="9.5964489"
         sodipodi:rx="9.5964489"
         sodipodi:cy="22.259123"
         sodipodi:cx="27.779196"
         id="path2997"
         style="fill:#ffffff;fill-opacity:1;stroke:#000000;stroke-opacity:1"
         sodipodi:type="arc" />
      <path
         inkscape:connector-curvature="0"
         id="path2997-1"
         d="m 27.90625,12.65625 c -4.235781,0 -7.820907,2.754896 -9.09375,6.5625 l 18.1875,0 c -1.272843,-3.807604 -4.857969,-6.5625 -9.09375,-6.5625 z"
         style="fill:#000000;fill-opacity:1;stroke:#000000;stroke-opacity:1" />
      <path
         sodipodi:nodetypes="ccccc"
         inkscape:connector-curvature="0"
         id="rect3797"
         d="m 18.881851,17.474926 15.584371,-1.402989 1.141655,3.058517 -24.622468,0.09821 z"
         style="fill:#000000;fill-opacity:1;stroke:#000000;stroke-width:0.99999994;stroke-opacity:1" />
      <g
         transform="translate(0.88388348,0.12626907)"
         id="g3804">
        <path
           sodipodi:type="arc"
           style="fill:#000000;fill-opacity:1;stroke:#000000;stroke-opacity:1"
           id="path3800"
           sodipodi:cx="10.417198"
           sodipodi:cy="36.969471"
           sodipodi:rx="2.0834396"
           sodipodi:ry="2.0834396"
           d="m 12.500638,36.969471 c 0,1.150652 -0.932788,2.08344 -2.08344,2.08344 -1.1506517,0 -2.0834394,-0.932788 -2.0834394,-2.08344 0,-1.150652 0.9327877,-2.08344 2.0834394,-2.08344 1.150652,0 2.08344,0.932788 2.08344,2.08344 z"
           transform="translate(3.5355339,-8.9651039)" />
        <rect
           style="fill:#000000;fill-opacity:1;stroke:#000000;stroke-opacity:1"
           id="rect3802"
           width="3.661803"
           height="1.2626907"
           x="14.394675"
           y="25.920925" />
      </g>
    </g>
    <rect
       style="fill:#008000;fill-opacity:1;stroke:none"
       id="rect4152-2"
       width="50.255089"
       height="32.072342"
       x="29.823099"
       y="142.71935" />
    <rect
       style="fill:#ffff00;fill-opacity:1;stroke:none"
       id="rect4152-5-1"
       width="71.342026"
       height="5.1770325"
       x="90.269073"
       y="109.48792"
       transform="matrix(0.87022863,0.49264807,-0.49264807,0.87022863,0,0)" />
    <rect
       style="fill:#ffff00;fill-opacity:1;stroke:none"
       id="rect4152-5-2-6"
       width="71.342026"
       height="5.1770325"
       x="-5.1846824"
       y="162.29224"
       transform="matrix(-0.87022863,0.49264807,0.49264807,0.87022863,0,0)" />
    <rect
       style="fill:#ff0000;fill-opacity:1;stroke:none"
       id="rect4152-7-8"
       width="76.976448"
       height="1.8940365"
       x="88.46109"
       y="111.04221"
       transform="matrix(0.86912376,0.49459468,-0.49459468,0.86912376,0,0)" />
    <rect
       style="fill:#ff0000;fill-opacity:1;stroke:none"
       id="rect4152-7-1-5"
       width="76.976448"
       height="1.8940365"
       x="-8.8704138"
       y="163.98817"
       transform="matrix(-0.86912376,0.49459468,0.49459468,0.86912376,0,0)" />
    <rect
       style="fill:#00ffff;fill-opacity:1;stroke:none"
       id="rect4152-4-7"
       width="12.500638"
       height="32.072342"
       x="47.627041"
       y="142.71933" />
    <rect
       style="fill:#00ffff;fill-opacity:1;stroke:none"
       id="rect4152-4-2-6"
       width="50.255089"
       height="12.2481"
       x="29.75996"
       y="152.94714" />
    <rect
       style="fill:#ff00ff;fill-opacity:1;stroke:none"
       id="rect4152-4-3-1"
       width="8.8388348"
       height="32.072342"
       x="49.331673"
       y="142.71935" />
    <rect
       style="fill:#ff00ff;fill-opacity:1;stroke:none"
       id="rect4152-4-2-2-8"
       width="50.255089"
       height="9.5964499"
       x="29.696829"
       y="154.27296" />
    <rect
       style="fill:#00ff00;fill-opacity:1;stroke:none"
       id="rect4394-9-2"
       width="19.464285"
       height="63.392857"
       x="-13.948991"
       y="96.847046" />
    <rect
       style="fill:#ffffff;fill-opacity:1;stroke:none"
       id="rect4502"
       width="12.121831"
       height="53.159279"
       x="-5.0507627"
       y="-1.7320001" />
    <rect
       style="fill:#ffffff;fill-opacity:1;stroke:none"
       id="rect4504"
       width="5.0507627"
       height="1.0101526"
       x="1.767767"
       y="2.9399555" />
  </g>
</svg>
